<mxfile host="Electron" modified="2025-05-13T18:08:41.959Z" agent="Mozilla/5.0 (Windows NT 10.0; Win64; x64) AppleWebKit/537.36 (KHTML, like Gecko) draw.io/24.4.13 Chrome/124.0.6367.207 Electron/30.0.6 Safari/537.36" etag="skYkg-TTHTElNQLdJkO8" version="24.4.13" type="device">
  <diagram name="Page-1" id="4YSpO8ANMUhce-bKs9AG">
    <mxGraphModel dx="2049" dy="1194" grid="1" gridSize="10" guides="1" tooltips="1" connect="1" arrows="1" fold="1" page="1" pageScale="1" pageWidth="827" pageHeight="1169" math="0" shadow="0">
      <root>
        <mxCell id="0" />
        <mxCell id="1" parent="0" />
        <mxCell id="JERTvntcSkMF-Z4vrDPZ-12" value="USER" style="rounded=0;whiteSpace=wrap;html=1;fontFamily=Consolas;fillColor=none;fontStyle=1;strokeColor=none;align=left;" vertex="1" parent="1">
          <mxGeometry x="40" y="70" width="100" height="20" as="geometry" />
        </mxCell>
        <mxCell id="JERTvntcSkMF-Z4vrDPZ-13" value="user_id" style="rounded=0;whiteSpace=wrap;html=1;fontFamily=Consolas;fillColor=#E6E6E6;fontStyle=4" vertex="1" parent="1">
          <mxGeometry x="40" y="90" width="80" height="20" as="geometry" />
        </mxCell>
        <mxCell id="JERTvntcSkMF-Z4vrDPZ-14" value="Name" style="rounded=0;whiteSpace=wrap;html=1;fontFamily=Consolas;fillColor=#E6E6E6;fontStyle=0" vertex="1" parent="1">
          <mxGeometry x="120" y="90" width="80" height="20" as="geometry" />
        </mxCell>
        <mxCell id="JERTvntcSkMF-Z4vrDPZ-15" value="Surname" style="rounded=0;whiteSpace=wrap;html=1;fontFamily=Consolas;fillColor=#E6E6E6;fontStyle=0" vertex="1" parent="1">
          <mxGeometry x="200" y="90" width="80" height="20" as="geometry" />
        </mxCell>
        <mxCell id="JERTvntcSkMF-Z4vrDPZ-22" value="Step 1: Mapping of regular entity types" style="text;html=1;align=left;verticalAlign=middle;whiteSpace=wrap;rounded=0;fontSize=18;fontStyle=1" vertex="1" parent="1">
          <mxGeometry x="40" y="40" width="340" height="30" as="geometry" />
        </mxCell>
        <mxCell id="JERTvntcSkMF-Z4vrDPZ-23" value="Email" style="rounded=0;whiteSpace=wrap;html=1;fontFamily=Consolas;fillColor=#E6E6E6;fontStyle=0" vertex="1" parent="1">
          <mxGeometry x="360" y="90" width="80" height="20" as="geometry" />
        </mxCell>
        <mxCell id="JERTvntcSkMF-Z4vrDPZ-24" value="Password" style="rounded=0;whiteSpace=wrap;html=1;fontFamily=Consolas;fillColor=#E6E6E6;fontStyle=0" vertex="1" parent="1">
          <mxGeometry x="440" y="90" width="80" height="20" as="geometry" />
        </mxCell>
        <mxCell id="JERTvntcSkMF-Z4vrDPZ-25" value="Phone_number" style="rounded=0;whiteSpace=wrap;html=1;fontFamily=Consolas;fillColor=#E6E6E6;fontStyle=0" vertex="1" parent="1">
          <mxGeometry x="520" y="90" width="100" height="20" as="geometry" />
        </mxCell>
        <mxCell id="JERTvntcSkMF-Z4vrDPZ-26" value="APIKey" style="rounded=0;whiteSpace=wrap;html=1;fontFamily=Consolas;fillColor=#E6E6E6;fontStyle=0" vertex="1" parent="1">
          <mxGeometry x="620" y="90" width="80" height="20" as="geometry" />
        </mxCell>
        <mxCell id="JERTvntcSkMF-Z4vrDPZ-27" value="Street_number" style="rounded=0;whiteSpace=wrap;html=1;fontFamily=Consolas;fillColor=#E6E6E6;fontStyle=0" vertex="1" parent="1">
          <mxGeometry x="700" y="90" width="100" height="20" as="geometry" />
        </mxCell>
        <mxCell id="JERTvntcSkMF-Z4vrDPZ-28" value="Street_name" style="rounded=0;whiteSpace=wrap;html=1;fontFamily=Consolas;fillColor=#E6E6E6;fontStyle=0" vertex="1" parent="1">
          <mxGeometry x="800" y="90" width="80" height="20" as="geometry" />
        </mxCell>
        <mxCell id="JERTvntcSkMF-Z4vrDPZ-29" value="Suburb" style="rounded=0;whiteSpace=wrap;html=1;fontFamily=Consolas;fillColor=#E6E6E6;fontStyle=0" vertex="1" parent="1">
          <mxGeometry x="880" y="90" width="80" height="20" as="geometry" />
        </mxCell>
        <mxCell id="JERTvntcSkMF-Z4vrDPZ-30" value="City" style="rounded=0;whiteSpace=wrap;html=1;fontFamily=Consolas;fillColor=#E6E6E6;fontStyle=0" vertex="1" parent="1">
          <mxGeometry x="960" y="90" width="80" height="20" as="geometry" />
        </mxCell>
        <mxCell id="JERTvntcSkMF-Z4vrDPZ-31" value="ZIP_code" style="rounded=0;whiteSpace=wrap;html=1;fontFamily=Consolas;fillColor=#E6E6E6;fontStyle=0" vertex="1" parent="1">
          <mxGeometry x="1040" y="90" width="80" height="20" as="geometry" />
        </mxCell>
        <mxCell id="JERTvntcSkMF-Z4vrDPZ-36" value="Products" style="rounded=0;whiteSpace=wrap;html=1;fontFamily=Consolas;fillColor=none;fontStyle=1;strokeColor=none;align=left;" vertex="1" parent="1">
          <mxGeometry x="40" y="170" width="80" height="20" as="geometry" />
        </mxCell>
        <mxCell id="JERTvntcSkMF-Z4vrDPZ-37" value="product_id" style="rounded=0;whiteSpace=wrap;html=1;fontFamily=Consolas;fillColor=#E6E6E6;fontStyle=4" vertex="1" parent="1">
          <mxGeometry x="40" y="190" width="80" height="20" as="geometry" />
        </mxCell>
        <mxCell id="JERTvntcSkMF-Z4vrDPZ-38" value="Name" style="rounded=0;whiteSpace=wrap;html=1;fontFamily=Consolas;fillColor=#E6E6E6;fontStyle=0" vertex="1" parent="1">
          <mxGeometry x="120" y="190" width="80" height="20" as="geometry" />
        </mxCell>
        <mxCell id="JERTvntcSkMF-Z4vrDPZ-39" value="Description" style="rounded=0;whiteSpace=wrap;html=1;fontFamily=Consolas;fillColor=#E6E6E6;fontStyle=0" vertex="1" parent="1">
          <mxGeometry x="280" y="190" width="100" height="20" as="geometry" />
        </mxCell>
        <mxCell id="JERTvntcSkMF-Z4vrDPZ-40" value="Price" style="rounded=0;whiteSpace=wrap;html=1;fontFamily=Consolas;fillColor=#E6E6E6;fontStyle=0" vertex="1" parent="1">
          <mxGeometry x="200" y="190" width="80" height="20" as="geometry" />
        </mxCell>
        <mxCell id="JERTvntcSkMF-Z4vrDPZ-41" value="Retailer" style="rounded=0;whiteSpace=wrap;html=1;fontFamily=Consolas;fillColor=none;fontStyle=1;strokeColor=none;align=left;" vertex="1" parent="1">
          <mxGeometry x="40" y="220" width="80" height="20" as="geometry" />
        </mxCell>
        <mxCell id="JERTvntcSkMF-Z4vrDPZ-42" value="retail_id" style="rounded=0;whiteSpace=wrap;html=1;fontFamily=Consolas;fillColor=#E6E6E6;fontStyle=4" vertex="1" parent="1">
          <mxGeometry x="40" y="240" width="80" height="20" as="geometry" />
        </mxCell>
        <mxCell id="JERTvntcSkMF-Z4vrDPZ-43" value="Name" style="rounded=0;whiteSpace=wrap;html=1;fontFamily=Consolas;fillColor=#E6E6E6;fontStyle=0" vertex="1" parent="1">
          <mxGeometry x="120" y="240" width="80" height="20" as="geometry" />
        </mxCell>
        <mxCell id="JERTvntcSkMF-Z4vrDPZ-44" value="Email" style="rounded=0;whiteSpace=wrap;html=1;fontFamily=Consolas;fillColor=#E6E6E6;fontStyle=0" vertex="1" parent="1">
          <mxGeometry x="200" y="240" width="80" height="20" as="geometry" />
        </mxCell>
        <mxCell id="JERTvntcSkMF-Z4vrDPZ-45" value="Street_number" style="rounded=0;whiteSpace=wrap;html=1;fontFamily=Consolas;fillColor=#E6E6E6;fontStyle=0" vertex="1" parent="1">
          <mxGeometry x="280" y="240" width="100" height="20" as="geometry" />
        </mxCell>
        <mxCell id="JERTvntcSkMF-Z4vrDPZ-46" value="Street_name" style="rounded=0;whiteSpace=wrap;html=1;fontFamily=Consolas;fillColor=#E6E6E6;fontStyle=0" vertex="1" parent="1">
          <mxGeometry x="380" y="240" width="80" height="20" as="geometry" />
        </mxCell>
        <mxCell id="JERTvntcSkMF-Z4vrDPZ-47" value="Suburb" style="rounded=0;whiteSpace=wrap;html=1;fontFamily=Consolas;fillColor=#E6E6E6;fontStyle=0" vertex="1" parent="1">
          <mxGeometry x="460" y="240" width="80" height="20" as="geometry" />
        </mxCell>
        <mxCell id="JERTvntcSkMF-Z4vrDPZ-48" value="City" style="rounded=0;whiteSpace=wrap;html=1;fontFamily=Consolas;fillColor=#E6E6E6;fontStyle=0" vertex="1" parent="1">
          <mxGeometry x="540" y="240" width="80" height="20" as="geometry" />
        </mxCell>
        <mxCell id="JERTvntcSkMF-Z4vrDPZ-49" value="ZIP_code" style="rounded=0;whiteSpace=wrap;html=1;fontFamily=Consolas;fillColor=#E6E6E6;fontStyle=0" vertex="1" parent="1">
          <mxGeometry x="620" y="240" width="80" height="20" as="geometry" />
        </mxCell>
        <mxCell id="JERTvntcSkMF-Z4vrDPZ-50" value="User_type" style="rounded=0;whiteSpace=wrap;html=1;fontFamily=Consolas;fillColor=#E6E6E6;fontStyle=0" vertex="1" parent="1">
          <mxGeometry x="280" y="90" width="80" height="20" as="geometry" />
        </mxCell>
        <mxCell id="JERTvntcSkMF-Z4vrDPZ-55" value="Step 2: Mapping of weak entity types" style="text;html=1;align=left;verticalAlign=middle;whiteSpace=wrap;rounded=0;fontSize=18;fontStyle=1" vertex="1" parent="1">
          <mxGeometry x="40" y="690" width="340" height="30" as="geometry" />
        </mxCell>
        <mxCell id="JERTvntcSkMF-Z4vrDPZ-90" value="Regular entities are mapped in this step. Customer and Admin_staff will be mapped in the next step since they are overlapping specialised entities." style="text;html=1;align=left;verticalAlign=middle;whiteSpace=wrap;rounded=0;" vertex="1" parent="1">
          <mxGeometry x="380" y="40" width="420" height="30" as="geometry" />
        </mxCell>
        <mxCell id="JERTvntcSkMF-Z4vrDPZ-92" value="We do not have weak entities in our conceptual design. We do nothing in this step. RATING is not a weak entity since ratings can be updated over time, ratings may need to be deleted, editied or moderated independetly of the user or product that it is linked to." style="text;html=1;align=left;verticalAlign=middle;whiteSpace=wrap;rounded=0;" vertex="1" parent="1">
          <mxGeometry x="360" y="690" width="420" height="60" as="geometry" />
        </mxCell>
        <mxCell id="JERTvntcSkMF-Z4vrDPZ-93" value="Step 3: Mapping of Binary 1:1 Relationships" style="text;html=1;align=left;verticalAlign=middle;whiteSpace=wrap;rounded=0;fontSize=18;fontStyle=1" vertex="1" parent="1">
          <mxGeometry x="40" y="760" width="380" height="30" as="geometry" />
        </mxCell>
        <mxCell id="JERTvntcSkMF-Z4vrDPZ-126" value="We do not have binary 1:1 relationships in our conceptual design. We do nothing in this step." style="text;html=1;align=left;verticalAlign=middle;whiteSpace=wrap;rounded=0;" vertex="1" parent="1">
          <mxGeometry x="420" y="760" width="420" height="30" as="geometry" />
        </mxCell>
        <mxCell id="JERTvntcSkMF-Z4vrDPZ-127" value="Step 4: Mapping of Binary 1:M Relationships" style="text;html=1;align=left;verticalAlign=middle;whiteSpace=wrap;rounded=0;fontSize=18;fontStyle=1" vertex="1" parent="1">
          <mxGeometry x="40" y="800" width="390" height="30" as="geometry" />
        </mxCell>
        <mxCell id="JERTvntcSkMF-Z4vrDPZ-160" value="We have two binary 1:M relationships in our conceptual design: CUSTOMER writes a REVIEW and REVIEW has a PRODUCT.&amp;nbsp;" style="text;html=1;align=left;verticalAlign=middle;whiteSpace=wrap;rounded=0;" vertex="1" parent="1">
          <mxGeometry x="430" y="800" width="420" height="30" as="geometry" />
        </mxCell>
        <mxCell id="JERTvntcSkMF-Z4vrDPZ-229" value="USER" style="rounded=0;whiteSpace=wrap;html=1;fontFamily=Consolas;fillColor=none;fontStyle=1;strokeColor=none;align=left;" vertex="1" parent="1">
          <mxGeometry x="40" y="340" width="100" height="20" as="geometry" />
        </mxCell>
        <mxCell id="JERTvntcSkMF-Z4vrDPZ-230" value="user_id" style="rounded=0;whiteSpace=wrap;html=1;fontFamily=Consolas;fillColor=#E6E6E6;fontStyle=4" vertex="1" parent="1">
          <mxGeometry x="40" y="360" width="80" height="20" as="geometry" />
        </mxCell>
        <mxCell id="JERTvntcSkMF-Z4vrDPZ-231" value="Name" style="rounded=0;whiteSpace=wrap;html=1;fontFamily=Consolas;fillColor=#E6E6E6;fontStyle=0" vertex="1" parent="1">
          <mxGeometry x="120" y="360" width="80" height="20" as="geometry" />
        </mxCell>
        <mxCell id="JERTvntcSkMF-Z4vrDPZ-232" value="Surname" style="rounded=0;whiteSpace=wrap;html=1;fontFamily=Consolas;fillColor=#E6E6E6;fontStyle=0" vertex="1" parent="1">
          <mxGeometry x="200" y="360" width="80" height="20" as="geometry" />
        </mxCell>
        <mxCell id="JERTvntcSkMF-Z4vrDPZ-233" value="Step 8: Mapping specialisation and generalisation" style="text;html=1;align=left;verticalAlign=middle;whiteSpace=wrap;rounded=0;fontSize=18;fontStyle=1" vertex="1" parent="1">
          <mxGeometry x="40" y="280" width="440" height="30" as="geometry" />
        </mxCell>
        <mxCell id="JERTvntcSkMF-Z4vrDPZ-234" value="Email" style="rounded=0;whiteSpace=wrap;html=1;fontFamily=Consolas;fillColor=#E6E6E6;fontStyle=0" vertex="1" parent="1">
          <mxGeometry x="360" y="360" width="80" height="20" as="geometry" />
        </mxCell>
        <mxCell id="JERTvntcSkMF-Z4vrDPZ-235" value="Password" style="rounded=0;whiteSpace=wrap;html=1;fontFamily=Consolas;fillColor=#E6E6E6;fontStyle=0" vertex="1" parent="1">
          <mxGeometry x="440" y="360" width="80" height="20" as="geometry" />
        </mxCell>
        <mxCell id="JERTvntcSkMF-Z4vrDPZ-236" value="Phone_number" style="rounded=0;whiteSpace=wrap;html=1;fontFamily=Consolas;fillColor=#E6E6E6;fontStyle=0" vertex="1" parent="1">
          <mxGeometry x="520" y="360" width="100" height="20" as="geometry" />
        </mxCell>
        <mxCell id="JERTvntcSkMF-Z4vrDPZ-237" value="APIKey" style="rounded=0;whiteSpace=wrap;html=1;fontFamily=Consolas;fillColor=#E6E6E6;fontStyle=0" vertex="1" parent="1">
          <mxGeometry x="620" y="360" width="80" height="20" as="geometry" />
        </mxCell>
        <mxCell id="JERTvntcSkMF-Z4vrDPZ-238" value="Street_number" style="rounded=0;whiteSpace=wrap;html=1;fontFamily=Consolas;fillColor=#E6E6E6;fontStyle=0" vertex="1" parent="1">
          <mxGeometry x="700" y="360" width="100" height="20" as="geometry" />
        </mxCell>
        <mxCell id="JERTvntcSkMF-Z4vrDPZ-239" value="Street_name" style="rounded=0;whiteSpace=wrap;html=1;fontFamily=Consolas;fillColor=#E6E6E6;fontStyle=0" vertex="1" parent="1">
          <mxGeometry x="800" y="360" width="80" height="20" as="geometry" />
        </mxCell>
        <mxCell id="JERTvntcSkMF-Z4vrDPZ-240" value="Suburb" style="rounded=0;whiteSpace=wrap;html=1;fontFamily=Consolas;fillColor=#E6E6E6;fontStyle=0" vertex="1" parent="1">
          <mxGeometry x="880" y="360" width="80" height="20" as="geometry" />
        </mxCell>
        <mxCell id="JERTvntcSkMF-Z4vrDPZ-241" value="City" style="rounded=0;whiteSpace=wrap;html=1;fontFamily=Consolas;fillColor=#E6E6E6;fontStyle=0" vertex="1" parent="1">
          <mxGeometry x="960" y="360" width="80" height="20" as="geometry" />
        </mxCell>
        <mxCell id="JERTvntcSkMF-Z4vrDPZ-242" value="ZIP_code" style="rounded=0;whiteSpace=wrap;html=1;fontFamily=Consolas;fillColor=#E6E6E6;fontStyle=0" vertex="1" parent="1">
          <mxGeometry x="1040" y="360" width="80" height="20" as="geometry" />
        </mxCell>
        <mxCell id="JERTvntcSkMF-Z4vrDPZ-247" value="PRODUCT" style="rounded=0;whiteSpace=wrap;html=1;fontFamily=Consolas;fillColor=none;fontStyle=1;strokeColor=none;align=left;" vertex="1" parent="1">
          <mxGeometry x="40" y="580" width="80" height="20" as="geometry" />
        </mxCell>
        <mxCell id="JERTvntcSkMF-Z4vrDPZ-248" value="product_id" style="rounded=0;whiteSpace=wrap;html=1;fontFamily=Consolas;fillColor=#E6E6E6;fontStyle=4" vertex="1" parent="1">
          <mxGeometry x="40" y="600" width="80" height="20" as="geometry" />
        </mxCell>
        <mxCell id="JERTvntcSkMF-Z4vrDPZ-249" value="Name" style="rounded=0;whiteSpace=wrap;html=1;fontFamily=Consolas;fillColor=#E6E6E6;fontStyle=0" vertex="1" parent="1">
          <mxGeometry x="120" y="600" width="80" height="20" as="geometry" />
        </mxCell>
        <mxCell id="JERTvntcSkMF-Z4vrDPZ-250" value="Description" style="rounded=0;whiteSpace=wrap;html=1;fontFamily=Consolas;fillColor=#E6E6E6;fontStyle=0" vertex="1" parent="1">
          <mxGeometry x="280" y="600" width="100" height="20" as="geometry" />
        </mxCell>
        <mxCell id="JERTvntcSkMF-Z4vrDPZ-251" value="Price" style="rounded=0;whiteSpace=wrap;html=1;fontFamily=Consolas;fillColor=#E6E6E6;fontStyle=0" vertex="1" parent="1">
          <mxGeometry x="200" y="600" width="80" height="20" as="geometry" />
        </mxCell>
        <mxCell id="JERTvntcSkMF-Z4vrDPZ-252" value="RETAILER" style="rounded=0;whiteSpace=wrap;html=1;fontFamily=Consolas;fillColor=none;fontStyle=1;strokeColor=none;align=left;" vertex="1" parent="1">
          <mxGeometry x="40" y="630" width="80" height="20" as="geometry" />
        </mxCell>
        <mxCell id="JERTvntcSkMF-Z4vrDPZ-253" value="retail_id" style="rounded=0;whiteSpace=wrap;html=1;fontFamily=Consolas;fillColor=#E6E6E6;fontStyle=4" vertex="1" parent="1">
          <mxGeometry x="40" y="650" width="80" height="20" as="geometry" />
        </mxCell>
        <mxCell id="JERTvntcSkMF-Z4vrDPZ-254" value="Name" style="rounded=0;whiteSpace=wrap;html=1;fontFamily=Consolas;fillColor=#E6E6E6;fontStyle=0" vertex="1" parent="1">
          <mxGeometry x="120" y="650" width="80" height="20" as="geometry" />
        </mxCell>
        <mxCell id="JERTvntcSkMF-Z4vrDPZ-255" value="Email" style="rounded=0;whiteSpace=wrap;html=1;fontFamily=Consolas;fillColor=#E6E6E6;fontStyle=0" vertex="1" parent="1">
          <mxGeometry x="200" y="650" width="80" height="20" as="geometry" />
        </mxCell>
        <mxCell id="JERTvntcSkMF-Z4vrDPZ-256" value="Street_number" style="rounded=0;whiteSpace=wrap;html=1;fontFamily=Consolas;fillColor=#E6E6E6;fontStyle=0" vertex="1" parent="1">
          <mxGeometry x="280" y="650" width="100" height="20" as="geometry" />
        </mxCell>
        <mxCell id="JERTvntcSkMF-Z4vrDPZ-257" value="Street_name" style="rounded=0;whiteSpace=wrap;html=1;fontFamily=Consolas;fillColor=#E6E6E6;fontStyle=0" vertex="1" parent="1">
          <mxGeometry x="380" y="650" width="80" height="20" as="geometry" />
        </mxCell>
        <mxCell id="JERTvntcSkMF-Z4vrDPZ-258" value="Suburb" style="rounded=0;whiteSpace=wrap;html=1;fontFamily=Consolas;fillColor=#E6E6E6;fontStyle=0" vertex="1" parent="1">
          <mxGeometry x="460" y="650" width="80" height="20" as="geometry" />
        </mxCell>
        <mxCell id="JERTvntcSkMF-Z4vrDPZ-259" value="City" style="rounded=0;whiteSpace=wrap;html=1;fontFamily=Consolas;fillColor=#E6E6E6;fontStyle=0" vertex="1" parent="1">
          <mxGeometry x="540" y="650" width="80" height="20" as="geometry" />
        </mxCell>
        <mxCell id="JERTvntcSkMF-Z4vrDPZ-260" value="ZIP_code" style="rounded=0;whiteSpace=wrap;html=1;fontFamily=Consolas;fillColor=#E6E6E6;fontStyle=0" vertex="1" parent="1">
          <mxGeometry x="620" y="650" width="80" height="20" as="geometry" />
        </mxCell>
        <mxCell id="JERTvntcSkMF-Z4vrDPZ-261" value="User_type" style="rounded=0;whiteSpace=wrap;html=1;fontFamily=Consolas;fillColor=#E6E6E6;fontStyle=0" vertex="1" parent="1">
          <mxGeometry x="280" y="360" width="80" height="20" as="geometry" />
        </mxCell>
        <mxCell id="JERTvntcSkMF-Z4vrDPZ-262" value="We need to do this step early because we need to use CUSTOMER in the coming steps. User is totally overlappingly specialised into two types: CUSTOMER and ADMIN_STAFF. We use approach 8A in the slides of L14: That is, create a relation for each subclass (customer and admin_staff) with the key of the superclass (user) and the attributes of this subclass. The key of the superclass will be the key of the subclasses, and links it to the superclass." style="text;html=1;align=left;verticalAlign=middle;whiteSpace=wrap;rounded=0;" vertex="1" parent="1">
          <mxGeometry x="480" y="280" width="640" height="60" as="geometry" />
        </mxCell>
        <mxCell id="JERTvntcSkMF-Z4vrDPZ-263" value="CUSTOMER" style="rounded=0;whiteSpace=wrap;html=1;fontFamily=Consolas;fillColor=none;fontStyle=1;strokeColor=none;align=left;" vertex="1" parent="1">
          <mxGeometry x="40" y="410" width="100" height="20" as="geometry" />
        </mxCell>
        <mxCell id="JERTvntcSkMF-Z4vrDPZ-274" style="edgeStyle=orthogonalEdgeStyle;rounded=0;orthogonalLoop=1;jettySize=auto;html=1;exitX=0.5;exitY=1;exitDx=0;exitDy=0;entryX=0.75;entryY=1;entryDx=0;entryDy=0;" edge="1" parent="1" source="JERTvntcSkMF-Z4vrDPZ-264" target="JERTvntcSkMF-Z4vrDPZ-230">
          <mxGeometry relative="1" as="geometry">
            <Array as="points">
              <mxPoint x="80" y="460" />
              <mxPoint x="20" y="460" />
              <mxPoint x="20" y="410" />
              <mxPoint x="100" y="410" />
            </Array>
          </mxGeometry>
        </mxCell>
        <mxCell id="JERTvntcSkMF-Z4vrDPZ-264" value="user_id" style="rounded=0;whiteSpace=wrap;html=1;fontFamily=Consolas;fillColor=#E6E6E6;fontStyle=4" vertex="1" parent="1">
          <mxGeometry x="40" y="430" width="80" height="20" as="geometry" />
        </mxCell>
        <mxCell id="JERTvntcSkMF-Z4vrDPZ-265" value="Profile_picture" style="rounded=0;whiteSpace=wrap;html=1;fontFamily=Consolas;fillColor=#E6E6E6;fontStyle=0" vertex="1" parent="1">
          <mxGeometry x="120" y="430" width="120" height="20" as="geometry" />
        </mxCell>
        <mxCell id="JERTvntcSkMF-Z4vrDPZ-269" value="ADMIN_STAFF" style="rounded=0;whiteSpace=wrap;html=1;fontFamily=Consolas;fillColor=none;fontStyle=1;strokeColor=none;align=left;" vertex="1" parent="1">
          <mxGeometry x="40" y="470" width="100" height="20" as="geometry" />
        </mxCell>
        <mxCell id="JERTvntcSkMF-Z4vrDPZ-275" style="edgeStyle=orthogonalEdgeStyle;rounded=0;orthogonalLoop=1;jettySize=auto;html=1;exitX=0.5;exitY=1;exitDx=0;exitDy=0;entryX=0.25;entryY=1;entryDx=0;entryDy=0;" edge="1" parent="1" source="JERTvntcSkMF-Z4vrDPZ-270" target="JERTvntcSkMF-Z4vrDPZ-230">
          <mxGeometry relative="1" as="geometry">
            <Array as="points">
              <mxPoint x="80" y="520" />
              <mxPoint x="10" y="520" />
              <mxPoint x="10" y="400" />
              <mxPoint x="60" y="400" />
            </Array>
          </mxGeometry>
        </mxCell>
        <mxCell id="JERTvntcSkMF-Z4vrDPZ-270" value="user_id" style="rounded=0;whiteSpace=wrap;html=1;fontFamily=Consolas;fillColor=#E6E6E6;fontStyle=4" vertex="1" parent="1">
          <mxGeometry x="40" y="490" width="80" height="20" as="geometry" />
        </mxCell>
        <mxCell id="JERTvntcSkMF-Z4vrDPZ-272" value="Salary" style="rounded=0;whiteSpace=wrap;html=1;fontFamily=Consolas;fillColor=#E6E6E6;fontStyle=0" vertex="1" parent="1">
          <mxGeometry x="120" y="490" width="80" height="20" as="geometry" />
        </mxCell>
        <mxCell id="JERTvntcSkMF-Z4vrDPZ-273" value="Position" style="rounded=0;whiteSpace=wrap;html=1;fontFamily=Consolas;fillColor=#E6E6E6;fontStyle=0" vertex="1" parent="1">
          <mxGeometry x="200" y="490" width="80" height="20" as="geometry" />
        </mxCell>
        <mxCell id="JERTvntcSkMF-Z4vrDPZ-454" value="Rating" style="rounded=0;whiteSpace=wrap;html=1;fontFamily=Consolas;fillColor=none;fontStyle=1;strokeColor=none;align=left;" vertex="1" parent="1">
          <mxGeometry x="40" y="120" width="80" height="20" as="geometry" />
        </mxCell>
        <mxCell id="JERTvntcSkMF-Z4vrDPZ-455" value="rating_id" style="rounded=0;whiteSpace=wrap;html=1;fontFamily=Consolas;fillColor=#E6E6E6;fontStyle=4" vertex="1" parent="1">
          <mxGeometry x="40" y="140" width="80" height="20" as="geometry" />
        </mxCell>
        <mxCell id="JERTvntcSkMF-Z4vrDPZ-456" value="Review" style="rounded=0;whiteSpace=wrap;html=1;fontFamily=Consolas;fillColor=#E6E6E6;fontStyle=0" vertex="1" parent="1">
          <mxGeometry x="120" y="140" width="80" height="20" as="geometry" />
        </mxCell>
        <mxCell id="JERTvntcSkMF-Z4vrDPZ-458" value="Score" style="rounded=0;whiteSpace=wrap;html=1;fontFamily=Consolas;fillColor=#E6E6E6;fontStyle=0" vertex="1" parent="1">
          <mxGeometry x="200" y="140" width="80" height="20" as="geometry" />
        </mxCell>
        <mxCell id="JERTvntcSkMF-Z4vrDPZ-459" value="RATING" style="rounded=0;whiteSpace=wrap;html=1;fontFamily=Consolas;fillColor=none;fontStyle=1;strokeColor=none;align=left;" vertex="1" parent="1">
          <mxGeometry x="40" y="530" width="80" height="20" as="geometry" />
        </mxCell>
        <mxCell id="JERTvntcSkMF-Z4vrDPZ-460" value="rating_id" style="rounded=0;whiteSpace=wrap;html=1;fontFamily=Consolas;fillColor=#E6E6E6;fontStyle=4" vertex="1" parent="1">
          <mxGeometry x="40" y="550" width="80" height="20" as="geometry" />
        </mxCell>
        <mxCell id="JERTvntcSkMF-Z4vrDPZ-461" value="Review" style="rounded=0;whiteSpace=wrap;html=1;fontFamily=Consolas;fillColor=#E6E6E6;fontStyle=0" vertex="1" parent="1">
          <mxGeometry x="120" y="550" width="80" height="20" as="geometry" />
        </mxCell>
        <mxCell id="JERTvntcSkMF-Z4vrDPZ-462" value="Score" style="rounded=0;whiteSpace=wrap;html=1;fontFamily=Consolas;fillColor=#E6E6E6;fontStyle=0" vertex="1" parent="1">
          <mxGeometry x="200" y="550" width="80" height="20" as="geometry" />
        </mxCell>
        <mxCell id="JERTvntcSkMF-Z4vrDPZ-588" value="USER" style="rounded=0;whiteSpace=wrap;html=1;fontFamily=Consolas;fillColor=none;fontStyle=1;strokeColor=none;align=left;" vertex="1" parent="1">
          <mxGeometry x="40" y="830" width="100" height="20" as="geometry" />
        </mxCell>
        <mxCell id="JERTvntcSkMF-Z4vrDPZ-589" value="user_id" style="rounded=0;whiteSpace=wrap;html=1;fontFamily=Consolas;fillColor=#E6E6E6;fontStyle=4" vertex="1" parent="1">
          <mxGeometry x="40" y="850" width="80" height="20" as="geometry" />
        </mxCell>
        <mxCell id="JERTvntcSkMF-Z4vrDPZ-590" value="Name" style="rounded=0;whiteSpace=wrap;html=1;fontFamily=Consolas;fillColor=#E6E6E6;fontStyle=0" vertex="1" parent="1">
          <mxGeometry x="120" y="850" width="80" height="20" as="geometry" />
        </mxCell>
        <mxCell id="JERTvntcSkMF-Z4vrDPZ-591" value="Surname" style="rounded=0;whiteSpace=wrap;html=1;fontFamily=Consolas;fillColor=#E6E6E6;fontStyle=0" vertex="1" parent="1">
          <mxGeometry x="200" y="850" width="80" height="20" as="geometry" />
        </mxCell>
        <mxCell id="JERTvntcSkMF-Z4vrDPZ-592" value="Email" style="rounded=0;whiteSpace=wrap;html=1;fontFamily=Consolas;fillColor=#E6E6E6;fontStyle=0" vertex="1" parent="1">
          <mxGeometry x="360" y="850" width="80" height="20" as="geometry" />
        </mxCell>
        <mxCell id="JERTvntcSkMF-Z4vrDPZ-593" value="Password" style="rounded=0;whiteSpace=wrap;html=1;fontFamily=Consolas;fillColor=#E6E6E6;fontStyle=0" vertex="1" parent="1">
          <mxGeometry x="440" y="850" width="80" height="20" as="geometry" />
        </mxCell>
        <mxCell id="JERTvntcSkMF-Z4vrDPZ-594" value="Phone_number" style="rounded=0;whiteSpace=wrap;html=1;fontFamily=Consolas;fillColor=#E6E6E6;fontStyle=0" vertex="1" parent="1">
          <mxGeometry x="520" y="850" width="100" height="20" as="geometry" />
        </mxCell>
        <mxCell id="JERTvntcSkMF-Z4vrDPZ-595" value="APIKey" style="rounded=0;whiteSpace=wrap;html=1;fontFamily=Consolas;fillColor=#E6E6E6;fontStyle=0" vertex="1" parent="1">
          <mxGeometry x="620" y="850" width="80" height="20" as="geometry" />
        </mxCell>
        <mxCell id="JERTvntcSkMF-Z4vrDPZ-596" value="Street_number" style="rounded=0;whiteSpace=wrap;html=1;fontFamily=Consolas;fillColor=#E6E6E6;fontStyle=0" vertex="1" parent="1">
          <mxGeometry x="700" y="850" width="100" height="20" as="geometry" />
        </mxCell>
        <mxCell id="JERTvntcSkMF-Z4vrDPZ-597" value="Street_name" style="rounded=0;whiteSpace=wrap;html=1;fontFamily=Consolas;fillColor=#E6E6E6;fontStyle=0" vertex="1" parent="1">
          <mxGeometry x="800" y="850" width="80" height="20" as="geometry" />
        </mxCell>
        <mxCell id="JERTvntcSkMF-Z4vrDPZ-598" value="Suburb" style="rounded=0;whiteSpace=wrap;html=1;fontFamily=Consolas;fillColor=#E6E6E6;fontStyle=0" vertex="1" parent="1">
          <mxGeometry x="880" y="850" width="80" height="20" as="geometry" />
        </mxCell>
        <mxCell id="JERTvntcSkMF-Z4vrDPZ-599" value="City" style="rounded=0;whiteSpace=wrap;html=1;fontFamily=Consolas;fillColor=#E6E6E6;fontStyle=0" vertex="1" parent="1">
          <mxGeometry x="960" y="850" width="80" height="20" as="geometry" />
        </mxCell>
        <mxCell id="JERTvntcSkMF-Z4vrDPZ-600" value="ZIP_code" style="rounded=0;whiteSpace=wrap;html=1;fontFamily=Consolas;fillColor=#E6E6E6;fontStyle=0" vertex="1" parent="1">
          <mxGeometry x="1040" y="850" width="80" height="20" as="geometry" />
        </mxCell>
        <mxCell id="JERTvntcSkMF-Z4vrDPZ-601" value="PRODUCT" style="rounded=0;whiteSpace=wrap;html=1;fontFamily=Consolas;fillColor=none;fontStyle=1;strokeColor=none;align=left;" vertex="1" parent="1">
          <mxGeometry x="40" y="1090" width="80" height="20" as="geometry" />
        </mxCell>
        <mxCell id="JERTvntcSkMF-Z4vrDPZ-602" value="product_id" style="rounded=0;whiteSpace=wrap;html=1;fontFamily=Consolas;fillColor=#E6E6E6;fontStyle=4" vertex="1" parent="1">
          <mxGeometry x="40" y="1110" width="80" height="20" as="geometry" />
        </mxCell>
        <mxCell id="JERTvntcSkMF-Z4vrDPZ-603" value="Name" style="rounded=0;whiteSpace=wrap;html=1;fontFamily=Consolas;fillColor=#E6E6E6;fontStyle=0" vertex="1" parent="1">
          <mxGeometry x="120" y="1110" width="80" height="20" as="geometry" />
        </mxCell>
        <mxCell id="JERTvntcSkMF-Z4vrDPZ-604" value="Description" style="rounded=0;whiteSpace=wrap;html=1;fontFamily=Consolas;fillColor=#E6E6E6;fontStyle=0" vertex="1" parent="1">
          <mxGeometry x="280" y="1110" width="100" height="20" as="geometry" />
        </mxCell>
        <mxCell id="JERTvntcSkMF-Z4vrDPZ-605" value="Price" style="rounded=0;whiteSpace=wrap;html=1;fontFamily=Consolas;fillColor=#E6E6E6;fontStyle=0" vertex="1" parent="1">
          <mxGeometry x="200" y="1110" width="80" height="20" as="geometry" />
        </mxCell>
        <mxCell id="JERTvntcSkMF-Z4vrDPZ-606" value="RETAILER" style="rounded=0;whiteSpace=wrap;html=1;fontFamily=Consolas;fillColor=none;fontStyle=1;strokeColor=none;align=left;" vertex="1" parent="1">
          <mxGeometry x="40" y="1160" width="80" height="20" as="geometry" />
        </mxCell>
        <mxCell id="JERTvntcSkMF-Z4vrDPZ-607" value="retail_id" style="rounded=0;whiteSpace=wrap;html=1;fontFamily=Consolas;fillColor=#E6E6E6;fontStyle=4" vertex="1" parent="1">
          <mxGeometry x="40" y="1180" width="80" height="20" as="geometry" />
        </mxCell>
        <mxCell id="JERTvntcSkMF-Z4vrDPZ-608" value="Name" style="rounded=0;whiteSpace=wrap;html=1;fontFamily=Consolas;fillColor=#E6E6E6;fontStyle=0" vertex="1" parent="1">
          <mxGeometry x="120" y="1180" width="80" height="20" as="geometry" />
        </mxCell>
        <mxCell id="JERTvntcSkMF-Z4vrDPZ-609" value="Email" style="rounded=0;whiteSpace=wrap;html=1;fontFamily=Consolas;fillColor=#E6E6E6;fontStyle=0" vertex="1" parent="1">
          <mxGeometry x="200" y="1180" width="80" height="20" as="geometry" />
        </mxCell>
        <mxCell id="JERTvntcSkMF-Z4vrDPZ-610" value="Street_number" style="rounded=0;whiteSpace=wrap;html=1;fontFamily=Consolas;fillColor=#E6E6E6;fontStyle=0" vertex="1" parent="1">
          <mxGeometry x="280" y="1180" width="100" height="20" as="geometry" />
        </mxCell>
        <mxCell id="JERTvntcSkMF-Z4vrDPZ-611" value="Street_name" style="rounded=0;whiteSpace=wrap;html=1;fontFamily=Consolas;fillColor=#E6E6E6;fontStyle=0" vertex="1" parent="1">
          <mxGeometry x="380" y="1180" width="80" height="20" as="geometry" />
        </mxCell>
        <mxCell id="JERTvntcSkMF-Z4vrDPZ-612" value="Suburb" style="rounded=0;whiteSpace=wrap;html=1;fontFamily=Consolas;fillColor=#E6E6E6;fontStyle=0" vertex="1" parent="1">
          <mxGeometry x="460" y="1180" width="80" height="20" as="geometry" />
        </mxCell>
        <mxCell id="JERTvntcSkMF-Z4vrDPZ-613" value="City" style="rounded=0;whiteSpace=wrap;html=1;fontFamily=Consolas;fillColor=#E6E6E6;fontStyle=0" vertex="1" parent="1">
          <mxGeometry x="540" y="1180" width="80" height="20" as="geometry" />
        </mxCell>
        <mxCell id="JERTvntcSkMF-Z4vrDPZ-614" value="ZIP_code" style="rounded=0;whiteSpace=wrap;html=1;fontFamily=Consolas;fillColor=#E6E6E6;fontStyle=0" vertex="1" parent="1">
          <mxGeometry x="620" y="1180" width="80" height="20" as="geometry" />
        </mxCell>
        <mxCell id="JERTvntcSkMF-Z4vrDPZ-615" value="User_type" style="rounded=0;whiteSpace=wrap;html=1;fontFamily=Consolas;fillColor=#E6E6E6;fontStyle=0" vertex="1" parent="1">
          <mxGeometry x="280" y="850" width="80" height="20" as="geometry" />
        </mxCell>
        <mxCell id="JERTvntcSkMF-Z4vrDPZ-616" value="CUSTOMER" style="rounded=0;whiteSpace=wrap;html=1;fontFamily=Consolas;fillColor=none;fontStyle=1;strokeColor=none;align=left;" vertex="1" parent="1">
          <mxGeometry x="40" y="900" width="100" height="20" as="geometry" />
        </mxCell>
        <mxCell id="JERTvntcSkMF-Z4vrDPZ-617" style="edgeStyle=orthogonalEdgeStyle;rounded=0;orthogonalLoop=1;jettySize=auto;html=1;exitX=0.5;exitY=1;exitDx=0;exitDy=0;entryX=0.75;entryY=1;entryDx=0;entryDy=0;" edge="1" parent="1" source="JERTvntcSkMF-Z4vrDPZ-618" target="JERTvntcSkMF-Z4vrDPZ-589">
          <mxGeometry relative="1" as="geometry">
            <Array as="points">
              <mxPoint x="60" y="940" />
              <mxPoint x="60" y="950" />
              <mxPoint x="20" y="950" />
              <mxPoint x="20" y="900" />
              <mxPoint x="100" y="900" />
            </Array>
          </mxGeometry>
        </mxCell>
        <mxCell id="JERTvntcSkMF-Z4vrDPZ-618" value="user_id" style="rounded=0;whiteSpace=wrap;html=1;fontFamily=Consolas;fillColor=#E6E6E6;fontStyle=4" vertex="1" parent="1">
          <mxGeometry x="40" y="920" width="80" height="20" as="geometry" />
        </mxCell>
        <mxCell id="JERTvntcSkMF-Z4vrDPZ-619" value="Profile_picture" style="rounded=0;whiteSpace=wrap;html=1;fontFamily=Consolas;fillColor=#E6E6E6;fontStyle=0" vertex="1" parent="1">
          <mxGeometry x="120" y="920" width="120" height="20" as="geometry" />
        </mxCell>
        <mxCell id="JERTvntcSkMF-Z4vrDPZ-620" value="ADMIN_STAFF" style="rounded=0;whiteSpace=wrap;html=1;fontFamily=Consolas;fillColor=none;fontStyle=1;strokeColor=none;align=left;" vertex="1" parent="1">
          <mxGeometry x="40" y="970" width="100" height="20" as="geometry" />
        </mxCell>
        <mxCell id="JERTvntcSkMF-Z4vrDPZ-621" style="edgeStyle=orthogonalEdgeStyle;rounded=0;orthogonalLoop=1;jettySize=auto;html=1;exitX=0.5;exitY=1;exitDx=0;exitDy=0;entryX=0.25;entryY=1;entryDx=0;entryDy=0;" edge="1" parent="1" source="JERTvntcSkMF-Z4vrDPZ-622" target="JERTvntcSkMF-Z4vrDPZ-589">
          <mxGeometry relative="1" as="geometry">
            <Array as="points">
              <mxPoint x="80" y="1020" />
              <mxPoint x="10" y="1020" />
              <mxPoint x="10" y="890" />
              <mxPoint x="60" y="890" />
            </Array>
          </mxGeometry>
        </mxCell>
        <mxCell id="JERTvntcSkMF-Z4vrDPZ-622" value="user_id" style="rounded=0;whiteSpace=wrap;html=1;fontFamily=Consolas;fillColor=#E6E6E6;fontStyle=4" vertex="1" parent="1">
          <mxGeometry x="40" y="990" width="80" height="20" as="geometry" />
        </mxCell>
        <mxCell id="JERTvntcSkMF-Z4vrDPZ-623" value="Salary" style="rounded=0;whiteSpace=wrap;html=1;fontFamily=Consolas;fillColor=#E6E6E6;fontStyle=0" vertex="1" parent="1">
          <mxGeometry x="120" y="990" width="80" height="20" as="geometry" />
        </mxCell>
        <mxCell id="JERTvntcSkMF-Z4vrDPZ-624" value="Position" style="rounded=0;whiteSpace=wrap;html=1;fontFamily=Consolas;fillColor=#E6E6E6;fontStyle=0" vertex="1" parent="1">
          <mxGeometry x="200" y="990" width="80" height="20" as="geometry" />
        </mxCell>
        <mxCell id="JERTvntcSkMF-Z4vrDPZ-625" value="RATING" style="rounded=0;whiteSpace=wrap;html=1;fontFamily=Consolas;fillColor=none;fontStyle=1;strokeColor=none;align=left;" vertex="1" parent="1">
          <mxGeometry x="40" y="1030" width="80" height="20" as="geometry" />
        </mxCell>
        <mxCell id="JERTvntcSkMF-Z4vrDPZ-626" value="rating_id" style="rounded=0;whiteSpace=wrap;html=1;fontFamily=Consolas;fillColor=#E6E6E6;fontStyle=4" vertex="1" parent="1">
          <mxGeometry x="40" y="1050" width="80" height="20" as="geometry" />
        </mxCell>
        <mxCell id="JERTvntcSkMF-Z4vrDPZ-627" value="Review" style="rounded=0;whiteSpace=wrap;html=1;fontFamily=Consolas;fillColor=#E6E6E6;fontStyle=0" vertex="1" parent="1">
          <mxGeometry x="280" y="1050" width="80" height="20" as="geometry" />
        </mxCell>
        <mxCell id="JERTvntcSkMF-Z4vrDPZ-628" value="Score" style="rounded=0;whiteSpace=wrap;html=1;fontFamily=Consolas;fillColor=#E6E6E6;fontStyle=0" vertex="1" parent="1">
          <mxGeometry x="360" y="1050" width="80" height="20" as="geometry" />
        </mxCell>
        <mxCell id="JERTvntcSkMF-Z4vrDPZ-632" style="edgeStyle=orthogonalEdgeStyle;rounded=0;orthogonalLoop=1;jettySize=auto;html=1;exitX=0.5;exitY=1;exitDx=0;exitDy=0;entryX=0.75;entryY=1;entryDx=0;entryDy=0;" edge="1" parent="1" source="JERTvntcSkMF-Z4vrDPZ-629" target="JERTvntcSkMF-Z4vrDPZ-618">
          <mxGeometry relative="1" as="geometry">
            <Array as="points">
              <mxPoint x="240" y="1080" />
              <mxPoint x="460" y="1080" />
              <mxPoint x="460" y="960" />
              <mxPoint x="100" y="960" />
            </Array>
          </mxGeometry>
        </mxCell>
        <mxCell id="JERTvntcSkMF-Z4vrDPZ-629" value="user_id" style="rounded=0;whiteSpace=wrap;html=1;fontFamily=Consolas;fillColor=#E6E6E6;fontStyle=4" vertex="1" parent="1">
          <mxGeometry x="200" y="1050" width="80" height="20" as="geometry" />
        </mxCell>
        <mxCell id="JERTvntcSkMF-Z4vrDPZ-634" style="edgeStyle=orthogonalEdgeStyle;rounded=0;orthogonalLoop=1;jettySize=auto;html=1;exitX=0.5;exitY=1;exitDx=0;exitDy=0;entryX=0.5;entryY=1;entryDx=0;entryDy=0;" edge="1" parent="1" source="JERTvntcSkMF-Z4vrDPZ-630" target="JERTvntcSkMF-Z4vrDPZ-602">
          <mxGeometry relative="1" as="geometry">
            <Array as="points">
              <mxPoint x="160" y="1080" />
              <mxPoint x="30.000000000000004" y="1080" />
              <mxPoint x="30.000000000000004" y="1150" />
              <mxPoint x="80" y="1150" />
            </Array>
          </mxGeometry>
        </mxCell>
        <mxCell id="JERTvntcSkMF-Z4vrDPZ-630" value="product_id" style="rounded=0;whiteSpace=wrap;html=1;fontFamily=Consolas;fillColor=#E6E6E6;fontStyle=4" vertex="1" parent="1">
          <mxGeometry x="120" y="1050" width="80" height="20" as="geometry" />
        </mxCell>
        <mxCell id="JERTvntcSkMF-Z4vrDPZ-635" value="Step 5: Mapping of Binary M:N Relationships" style="text;html=1;align=left;verticalAlign=middle;whiteSpace=wrap;rounded=0;fontSize=18;fontStyle=1" vertex="1" parent="1">
          <mxGeometry x="40" y="1220" width="390" height="30" as="geometry" />
        </mxCell>
        <mxCell id="JERTvntcSkMF-Z4vrDPZ-636" value="We have one binary M:N relationships in our conceptual design: PRODUCT supplied by RETAILER. We create a new relation SUPPLIED_BY to support this." style="text;html=1;align=left;verticalAlign=middle;whiteSpace=wrap;rounded=0;" vertex="1" parent="1">
          <mxGeometry x="430" y="1220" width="440" height="30" as="geometry" />
        </mxCell>
        <mxCell id="JERTvntcSkMF-Z4vrDPZ-637" value="USER" style="rounded=0;whiteSpace=wrap;html=1;fontFamily=Consolas;fillColor=none;fontStyle=1;strokeColor=none;align=left;" vertex="1" parent="1">
          <mxGeometry x="40" y="1250" width="100" height="20" as="geometry" />
        </mxCell>
        <mxCell id="JERTvntcSkMF-Z4vrDPZ-638" value="user_id" style="rounded=0;whiteSpace=wrap;html=1;fontFamily=Consolas;fillColor=#E6E6E6;fontStyle=4" vertex="1" parent="1">
          <mxGeometry x="40" y="1270" width="80" height="20" as="geometry" />
        </mxCell>
        <mxCell id="JERTvntcSkMF-Z4vrDPZ-639" value="Name" style="rounded=0;whiteSpace=wrap;html=1;fontFamily=Consolas;fillColor=#E6E6E6;fontStyle=0" vertex="1" parent="1">
          <mxGeometry x="120" y="1270" width="80" height="20" as="geometry" />
        </mxCell>
        <mxCell id="JERTvntcSkMF-Z4vrDPZ-640" value="Surname" style="rounded=0;whiteSpace=wrap;html=1;fontFamily=Consolas;fillColor=#E6E6E6;fontStyle=0" vertex="1" parent="1">
          <mxGeometry x="200" y="1270" width="80" height="20" as="geometry" />
        </mxCell>
        <mxCell id="JERTvntcSkMF-Z4vrDPZ-641" value="Email" style="rounded=0;whiteSpace=wrap;html=1;fontFamily=Consolas;fillColor=#E6E6E6;fontStyle=0" vertex="1" parent="1">
          <mxGeometry x="360" y="1270" width="80" height="20" as="geometry" />
        </mxCell>
        <mxCell id="JERTvntcSkMF-Z4vrDPZ-642" value="Password" style="rounded=0;whiteSpace=wrap;html=1;fontFamily=Consolas;fillColor=#E6E6E6;fontStyle=0" vertex="1" parent="1">
          <mxGeometry x="440" y="1270" width="80" height="20" as="geometry" />
        </mxCell>
        <mxCell id="JERTvntcSkMF-Z4vrDPZ-643" value="Phone_number" style="rounded=0;whiteSpace=wrap;html=1;fontFamily=Consolas;fillColor=#E6E6E6;fontStyle=0" vertex="1" parent="1">
          <mxGeometry x="520" y="1270" width="100" height="20" as="geometry" />
        </mxCell>
        <mxCell id="JERTvntcSkMF-Z4vrDPZ-644" value="APIKey" style="rounded=0;whiteSpace=wrap;html=1;fontFamily=Consolas;fillColor=#E6E6E6;fontStyle=0" vertex="1" parent="1">
          <mxGeometry x="620" y="1270" width="80" height="20" as="geometry" />
        </mxCell>
        <mxCell id="JERTvntcSkMF-Z4vrDPZ-645" value="Street_number" style="rounded=0;whiteSpace=wrap;html=1;fontFamily=Consolas;fillColor=#E6E6E6;fontStyle=0" vertex="1" parent="1">
          <mxGeometry x="700" y="1270" width="100" height="20" as="geometry" />
        </mxCell>
        <mxCell id="JERTvntcSkMF-Z4vrDPZ-646" value="Street_name" style="rounded=0;whiteSpace=wrap;html=1;fontFamily=Consolas;fillColor=#E6E6E6;fontStyle=0" vertex="1" parent="1">
          <mxGeometry x="800" y="1270" width="80" height="20" as="geometry" />
        </mxCell>
        <mxCell id="JERTvntcSkMF-Z4vrDPZ-647" value="Suburb" style="rounded=0;whiteSpace=wrap;html=1;fontFamily=Consolas;fillColor=#E6E6E6;fontStyle=0" vertex="1" parent="1">
          <mxGeometry x="880" y="1270" width="80" height="20" as="geometry" />
        </mxCell>
        <mxCell id="JERTvntcSkMF-Z4vrDPZ-648" value="City" style="rounded=0;whiteSpace=wrap;html=1;fontFamily=Consolas;fillColor=#E6E6E6;fontStyle=0" vertex="1" parent="1">
          <mxGeometry x="960" y="1270" width="80" height="20" as="geometry" />
        </mxCell>
        <mxCell id="JERTvntcSkMF-Z4vrDPZ-649" value="ZIP_code" style="rounded=0;whiteSpace=wrap;html=1;fontFamily=Consolas;fillColor=#E6E6E6;fontStyle=0" vertex="1" parent="1">
          <mxGeometry x="1040" y="1270" width="80" height="20" as="geometry" />
        </mxCell>
        <mxCell id="JERTvntcSkMF-Z4vrDPZ-650" value="PRODUCT" style="rounded=0;whiteSpace=wrap;html=1;fontFamily=Consolas;fillColor=none;fontStyle=1;strokeColor=none;align=left;" vertex="1" parent="1">
          <mxGeometry x="40" y="1510" width="80" height="20" as="geometry" />
        </mxCell>
        <mxCell id="JERTvntcSkMF-Z4vrDPZ-651" value="product_id" style="rounded=0;whiteSpace=wrap;html=1;fontFamily=Consolas;fillColor=#E6E6E6;fontStyle=4" vertex="1" parent="1">
          <mxGeometry x="40" y="1530" width="80" height="20" as="geometry" />
        </mxCell>
        <mxCell id="JERTvntcSkMF-Z4vrDPZ-652" value="Name" style="rounded=0;whiteSpace=wrap;html=1;fontFamily=Consolas;fillColor=#E6E6E6;fontStyle=0" vertex="1" parent="1">
          <mxGeometry x="120" y="1530" width="80" height="20" as="geometry" />
        </mxCell>
        <mxCell id="JERTvntcSkMF-Z4vrDPZ-653" value="Description" style="rounded=0;whiteSpace=wrap;html=1;fontFamily=Consolas;fillColor=#E6E6E6;fontStyle=0" vertex="1" parent="1">
          <mxGeometry x="280" y="1530" width="100" height="20" as="geometry" />
        </mxCell>
        <mxCell id="JERTvntcSkMF-Z4vrDPZ-654" value="Price" style="rounded=0;whiteSpace=wrap;html=1;fontFamily=Consolas;fillColor=#E6E6E6;fontStyle=0" vertex="1" parent="1">
          <mxGeometry x="200" y="1530" width="80" height="20" as="geometry" />
        </mxCell>
        <mxCell id="JERTvntcSkMF-Z4vrDPZ-655" value="RETAILER" style="rounded=0;whiteSpace=wrap;html=1;fontFamily=Consolas;fillColor=none;fontStyle=1;strokeColor=none;align=left;" vertex="1" parent="1">
          <mxGeometry x="40" y="1580" width="80" height="20" as="geometry" />
        </mxCell>
        <mxCell id="JERTvntcSkMF-Z4vrDPZ-656" value="retail_id" style="rounded=0;whiteSpace=wrap;html=1;fontFamily=Consolas;fillColor=#E6E6E6;fontStyle=4" vertex="1" parent="1">
          <mxGeometry x="40" y="1600" width="80" height="20" as="geometry" />
        </mxCell>
        <mxCell id="JERTvntcSkMF-Z4vrDPZ-657" value="Name" style="rounded=0;whiteSpace=wrap;html=1;fontFamily=Consolas;fillColor=#E6E6E6;fontStyle=0" vertex="1" parent="1">
          <mxGeometry x="120" y="1600" width="80" height="20" as="geometry" />
        </mxCell>
        <mxCell id="JERTvntcSkMF-Z4vrDPZ-658" value="Email" style="rounded=0;whiteSpace=wrap;html=1;fontFamily=Consolas;fillColor=#E6E6E6;fontStyle=0" vertex="1" parent="1">
          <mxGeometry x="200" y="1600" width="80" height="20" as="geometry" />
        </mxCell>
        <mxCell id="JERTvntcSkMF-Z4vrDPZ-659" value="Street_number" style="rounded=0;whiteSpace=wrap;html=1;fontFamily=Consolas;fillColor=#E6E6E6;fontStyle=0" vertex="1" parent="1">
          <mxGeometry x="280" y="1600" width="100" height="20" as="geometry" />
        </mxCell>
        <mxCell id="JERTvntcSkMF-Z4vrDPZ-660" value="Street_name" style="rounded=0;whiteSpace=wrap;html=1;fontFamily=Consolas;fillColor=#E6E6E6;fontStyle=0" vertex="1" parent="1">
          <mxGeometry x="380" y="1600" width="80" height="20" as="geometry" />
        </mxCell>
        <mxCell id="JERTvntcSkMF-Z4vrDPZ-661" value="Suburb" style="rounded=0;whiteSpace=wrap;html=1;fontFamily=Consolas;fillColor=#E6E6E6;fontStyle=0" vertex="1" parent="1">
          <mxGeometry x="460" y="1600" width="80" height="20" as="geometry" />
        </mxCell>
        <mxCell id="JERTvntcSkMF-Z4vrDPZ-662" value="City" style="rounded=0;whiteSpace=wrap;html=1;fontFamily=Consolas;fillColor=#E6E6E6;fontStyle=0" vertex="1" parent="1">
          <mxGeometry x="540" y="1600" width="80" height="20" as="geometry" />
        </mxCell>
        <mxCell id="JERTvntcSkMF-Z4vrDPZ-663" value="ZIP_code" style="rounded=0;whiteSpace=wrap;html=1;fontFamily=Consolas;fillColor=#E6E6E6;fontStyle=0" vertex="1" parent="1">
          <mxGeometry x="620" y="1600" width="80" height="20" as="geometry" />
        </mxCell>
        <mxCell id="JERTvntcSkMF-Z4vrDPZ-664" value="User_type" style="rounded=0;whiteSpace=wrap;html=1;fontFamily=Consolas;fillColor=#E6E6E6;fontStyle=0" vertex="1" parent="1">
          <mxGeometry x="280" y="1270" width="80" height="20" as="geometry" />
        </mxCell>
        <mxCell id="JERTvntcSkMF-Z4vrDPZ-665" value="CUSTOMER" style="rounded=0;whiteSpace=wrap;html=1;fontFamily=Consolas;fillColor=none;fontStyle=1;strokeColor=none;align=left;" vertex="1" parent="1">
          <mxGeometry x="40" y="1320" width="100" height="20" as="geometry" />
        </mxCell>
        <mxCell id="JERTvntcSkMF-Z4vrDPZ-666" style="edgeStyle=orthogonalEdgeStyle;rounded=0;orthogonalLoop=1;jettySize=auto;html=1;exitX=0.5;exitY=1;exitDx=0;exitDy=0;entryX=0.75;entryY=1;entryDx=0;entryDy=0;" edge="1" parent="1" source="JERTvntcSkMF-Z4vrDPZ-667" target="JERTvntcSkMF-Z4vrDPZ-638">
          <mxGeometry relative="1" as="geometry">
            <Array as="points">
              <mxPoint x="60" y="1360" />
              <mxPoint x="60" y="1370" />
              <mxPoint x="20" y="1370" />
              <mxPoint x="20" y="1320" />
              <mxPoint x="100" y="1320" />
            </Array>
          </mxGeometry>
        </mxCell>
        <mxCell id="JERTvntcSkMF-Z4vrDPZ-667" value="user_id" style="rounded=0;whiteSpace=wrap;html=1;fontFamily=Consolas;fillColor=#E6E6E6;fontStyle=4" vertex="1" parent="1">
          <mxGeometry x="40" y="1340" width="80" height="20" as="geometry" />
        </mxCell>
        <mxCell id="JERTvntcSkMF-Z4vrDPZ-668" value="Profile_picture" style="rounded=0;whiteSpace=wrap;html=1;fontFamily=Consolas;fillColor=#E6E6E6;fontStyle=0" vertex="1" parent="1">
          <mxGeometry x="120" y="1340" width="120" height="20" as="geometry" />
        </mxCell>
        <mxCell id="JERTvntcSkMF-Z4vrDPZ-669" value="ADMIN_STAFF" style="rounded=0;whiteSpace=wrap;html=1;fontFamily=Consolas;fillColor=none;fontStyle=1;strokeColor=none;align=left;" vertex="1" parent="1">
          <mxGeometry x="40" y="1390" width="100" height="20" as="geometry" />
        </mxCell>
        <mxCell id="JERTvntcSkMF-Z4vrDPZ-670" style="edgeStyle=orthogonalEdgeStyle;rounded=0;orthogonalLoop=1;jettySize=auto;html=1;exitX=0.5;exitY=1;exitDx=0;exitDy=0;entryX=0.25;entryY=1;entryDx=0;entryDy=0;" edge="1" parent="1" source="JERTvntcSkMF-Z4vrDPZ-671" target="JERTvntcSkMF-Z4vrDPZ-638">
          <mxGeometry relative="1" as="geometry">
            <Array as="points">
              <mxPoint x="80" y="1440" />
              <mxPoint x="10" y="1440" />
              <mxPoint x="10" y="1310" />
              <mxPoint x="60" y="1310" />
            </Array>
          </mxGeometry>
        </mxCell>
        <mxCell id="JERTvntcSkMF-Z4vrDPZ-671" value="user_id" style="rounded=0;whiteSpace=wrap;html=1;fontFamily=Consolas;fillColor=#E6E6E6;fontStyle=4" vertex="1" parent="1">
          <mxGeometry x="40" y="1410" width="80" height="20" as="geometry" />
        </mxCell>
        <mxCell id="JERTvntcSkMF-Z4vrDPZ-672" value="Salary" style="rounded=0;whiteSpace=wrap;html=1;fontFamily=Consolas;fillColor=#E6E6E6;fontStyle=0" vertex="1" parent="1">
          <mxGeometry x="120" y="1410" width="80" height="20" as="geometry" />
        </mxCell>
        <mxCell id="JERTvntcSkMF-Z4vrDPZ-673" value="Position" style="rounded=0;whiteSpace=wrap;html=1;fontFamily=Consolas;fillColor=#E6E6E6;fontStyle=0" vertex="1" parent="1">
          <mxGeometry x="200" y="1410" width="80" height="20" as="geometry" />
        </mxCell>
        <mxCell id="JERTvntcSkMF-Z4vrDPZ-674" value="RATING" style="rounded=0;whiteSpace=wrap;html=1;fontFamily=Consolas;fillColor=none;fontStyle=1;strokeColor=none;align=left;" vertex="1" parent="1">
          <mxGeometry x="40" y="1450" width="80" height="20" as="geometry" />
        </mxCell>
        <mxCell id="JERTvntcSkMF-Z4vrDPZ-675" value="rating_id" style="rounded=0;whiteSpace=wrap;html=1;fontFamily=Consolas;fillColor=#E6E6E6;fontStyle=4" vertex="1" parent="1">
          <mxGeometry x="40" y="1470" width="80" height="20" as="geometry" />
        </mxCell>
        <mxCell id="JERTvntcSkMF-Z4vrDPZ-676" value="Review" style="rounded=0;whiteSpace=wrap;html=1;fontFamily=Consolas;fillColor=#E6E6E6;fontStyle=0" vertex="1" parent="1">
          <mxGeometry x="280" y="1470" width="80" height="20" as="geometry" />
        </mxCell>
        <mxCell id="JERTvntcSkMF-Z4vrDPZ-677" value="Score" style="rounded=0;whiteSpace=wrap;html=1;fontFamily=Consolas;fillColor=#E6E6E6;fontStyle=0" vertex="1" parent="1">
          <mxGeometry x="360" y="1470" width="80" height="20" as="geometry" />
        </mxCell>
        <mxCell id="JERTvntcSkMF-Z4vrDPZ-678" style="edgeStyle=orthogonalEdgeStyle;rounded=0;orthogonalLoop=1;jettySize=auto;html=1;exitX=0.5;exitY=1;exitDx=0;exitDy=0;entryX=0.75;entryY=1;entryDx=0;entryDy=0;" edge="1" parent="1" source="JERTvntcSkMF-Z4vrDPZ-679" target="JERTvntcSkMF-Z4vrDPZ-667">
          <mxGeometry relative="1" as="geometry">
            <Array as="points">
              <mxPoint x="240" y="1500" />
              <mxPoint x="460" y="1500" />
              <mxPoint x="460" y="1380" />
              <mxPoint x="100" y="1380" />
            </Array>
          </mxGeometry>
        </mxCell>
        <mxCell id="JERTvntcSkMF-Z4vrDPZ-679" value="user_id" style="rounded=0;whiteSpace=wrap;html=1;fontFamily=Consolas;fillColor=#E6E6E6;fontStyle=4" vertex="1" parent="1">
          <mxGeometry x="200" y="1470" width="80" height="20" as="geometry" />
        </mxCell>
        <mxCell id="JERTvntcSkMF-Z4vrDPZ-680" style="edgeStyle=orthogonalEdgeStyle;rounded=0;orthogonalLoop=1;jettySize=auto;html=1;exitX=0.5;exitY=1;exitDx=0;exitDy=0;entryX=0.25;entryY=1;entryDx=0;entryDy=0;" edge="1" parent="1" source="JERTvntcSkMF-Z4vrDPZ-681" target="JERTvntcSkMF-Z4vrDPZ-651">
          <mxGeometry relative="1" as="geometry">
            <Array as="points">
              <mxPoint x="160" y="1500" />
              <mxPoint x="30.000000000000004" y="1500" />
              <mxPoint x="30.000000000000004" y="1570" />
              <mxPoint x="60" y="1570" />
            </Array>
          </mxGeometry>
        </mxCell>
        <mxCell id="JERTvntcSkMF-Z4vrDPZ-681" value="product_id" style="rounded=0;whiteSpace=wrap;html=1;fontFamily=Consolas;fillColor=#E6E6E6;fontStyle=4" vertex="1" parent="1">
          <mxGeometry x="120" y="1470" width="80" height="20" as="geometry" />
        </mxCell>
        <mxCell id="JERTvntcSkMF-Z4vrDPZ-683" value="SUPPLIED_BY" style="rounded=0;whiteSpace=wrap;html=1;fontFamily=Consolas;fillColor=none;fontStyle=1;strokeColor=none;align=left;" vertex="1" parent="1">
          <mxGeometry x="40" y="1640" width="80" height="20" as="geometry" />
        </mxCell>
        <mxCell id="JERTvntcSkMF-Z4vrDPZ-686" style="edgeStyle=orthogonalEdgeStyle;rounded=0;orthogonalLoop=1;jettySize=auto;html=1;exitX=0.5;exitY=1;exitDx=0;exitDy=0;entryX=0.5;entryY=1;entryDx=0;entryDy=0;" edge="1" parent="1" source="JERTvntcSkMF-Z4vrDPZ-684" target="JERTvntcSkMF-Z4vrDPZ-656">
          <mxGeometry relative="1" as="geometry">
            <Array as="points">
              <mxPoint x="80" y="1690" />
              <mxPoint x="20" y="1690" />
              <mxPoint x="20" y="1640" />
              <mxPoint x="80" y="1640" />
            </Array>
          </mxGeometry>
        </mxCell>
        <mxCell id="JERTvntcSkMF-Z4vrDPZ-684" value="retail_id" style="rounded=0;whiteSpace=wrap;html=1;fontFamily=Consolas;fillColor=#E6E6E6;fontStyle=4" vertex="1" parent="1">
          <mxGeometry x="40" y="1660" width="80" height="20" as="geometry" />
        </mxCell>
        <mxCell id="JERTvntcSkMF-Z4vrDPZ-687" style="edgeStyle=orthogonalEdgeStyle;rounded=0;orthogonalLoop=1;jettySize=auto;html=1;exitX=0.5;exitY=1;exitDx=0;exitDy=0;entryX=0.75;entryY=1;entryDx=0;entryDy=0;" edge="1" parent="1" source="JERTvntcSkMF-Z4vrDPZ-685" target="JERTvntcSkMF-Z4vrDPZ-651">
          <mxGeometry relative="1" as="geometry">
            <Array as="points">
              <mxPoint x="160" y="1690" />
              <mxPoint x="720" y="1690" />
              <mxPoint x="720" y="1570" />
              <mxPoint x="100" y="1570" />
            </Array>
          </mxGeometry>
        </mxCell>
        <mxCell id="JERTvntcSkMF-Z4vrDPZ-685" value="product_id" style="rounded=0;whiteSpace=wrap;html=1;fontFamily=Consolas;fillColor=#E6E6E6;fontStyle=4" vertex="1" parent="1">
          <mxGeometry x="120" y="1660" width="80" height="20" as="geometry" />
        </mxCell>
        <mxCell id="JERTvntcSkMF-Z4vrDPZ-688" value="Step 6: Mapping of multivalued attributes" style="text;html=1;align=left;verticalAlign=middle;whiteSpace=wrap;rounded=0;fontSize=18;fontStyle=1" vertex="1" parent="1">
          <mxGeometry x="40" y="1700" width="360" height="30" as="geometry" />
        </mxCell>
        <mxCell id="JERTvntcSkMF-Z4vrDPZ-689" value="We do not have multivalued attributes in our conceptual design. We do nothing in this step." style="text;html=1;align=left;verticalAlign=middle;whiteSpace=wrap;rounded=0;" vertex="1" parent="1">
          <mxGeometry x="400" y="1700" width="440" height="30" as="geometry" />
        </mxCell>
        <mxCell id="JERTvntcSkMF-Z4vrDPZ-740" value="Step 7: Mapping of N-ary relationships" style="text;html=1;align=left;verticalAlign=middle;whiteSpace=wrap;rounded=0;fontSize=18;fontStyle=1" vertex="1" parent="1">
          <mxGeometry x="40" y="1740" width="340" height="30" as="geometry" />
        </mxCell>
        <mxCell id="JERTvntcSkMF-Z4vrDPZ-741" value="We do not have N-ary relationships in our conceptual design. We do nothing in this step." style="text;html=1;align=left;verticalAlign=middle;whiteSpace=wrap;rounded=0;" vertex="1" parent="1">
          <mxGeometry x="380" y="1740" width="440" height="30" as="geometry" />
        </mxCell>
        <mxCell id="JERTvntcSkMF-Z4vrDPZ-796" value="Step 8: Mapping specialisation and generalisation" style="text;html=1;align=left;verticalAlign=middle;whiteSpace=wrap;rounded=0;fontSize=18;fontStyle=1" vertex="1" parent="1">
          <mxGeometry x="40" y="1780" width="440" height="30" as="geometry" />
        </mxCell>
        <mxCell id="JERTvntcSkMF-Z4vrDPZ-797" value="Step 8 was already done directly after step 1 to ensure that CUSTOMER exists before we map relationships. We do not have other specialisation in our conceptual design." style="text;html=1;align=left;verticalAlign=middle;whiteSpace=wrap;rounded=0;" vertex="1" parent="1">
          <mxGeometry x="480" y="1780" width="440" height="40" as="geometry" />
        </mxCell>
        <mxCell id="JERTvntcSkMF-Z4vrDPZ-798" value="Step 9: Mapping unions" style="text;html=1;align=left;verticalAlign=middle;whiteSpace=wrap;rounded=0;fontSize=18;fontStyle=1" vertex="1" parent="1">
          <mxGeometry x="40" y="1830" width="210" height="30" as="geometry" />
        </mxCell>
        <mxCell id="JERTvntcSkMF-Z4vrDPZ-799" value="We do not have unions in our conceptual design. We do nothing in this step." style="text;html=1;align=left;verticalAlign=middle;whiteSpace=wrap;rounded=0;" vertex="1" parent="1">
          <mxGeometry x="250" y="1830" width="400" height="30" as="geometry" />
        </mxCell>
      </root>
    </mxGraphModel>
  </diagram>
</mxfile>
